<svg width="250" height="150" viewBox="0 0 409 285" fill="none" xmlns="http://www.w3.org/2000/svg">
<path opacity="0.02" d="M124.411 8.79999C115.344 9.33332 108.811 10.4 104.811 12C100.811 13.6 98.0109 16.6667 96.4109 21.2C95.0776 25.7333 94.4109 33.0666 94.4109 43.2V241.6C94.4109 251.733 95.0776 259.067 96.4109 263.6C98.0109 268.133 100.811 271.2 104.811 272.8C108.811 274.4 115.344 275.467 124.411 276V284C110.011 283.2 89.8776 282.8 64.0109 282.8C35.4776 282.8 14.4109 283.2 0.810938 284V276C9.61094 275.467 16.0109 274.4 20.0109 272.8C24.2776 271.2 27.0776 268.133 28.4109 263.6C30.0109 259.067 30.8109 251.733 30.8109 241.6V43.2C30.8109 33.0666 30.0109 25.7333 28.4109 21.2C27.0776 16.6667 24.2776 13.6 20.0109 12C16.0109 10.4 9.61094 9.33332 0.810938 8.79999V0.799998C14.4109 1.59999 35.4776 1.99998 64.0109 1.99998C89.8776 1.99998 110.011 1.59999 124.411 0.799998V8.79999ZM378.402 1.99998C390.668 1.99998 400.802 1.59999 408.802 0.799998V8.79999C402.135 11.2 395.602 16.2667 389.202 24C382.802 31.7333 377.068 42.5333 372.002 56.4L287.602 284.8C284.668 284.533 280.002 284.4 273.602 284.4C267.468 284.4 262.935 284.533 260.002 284.8L158.002 34.4C154.535 25.6 150.535 19.2 146.002 15.2C141.468 11.2 137.068 9.06665 132.802 8.79999V0.799998C148.802 1.59999 169.068 1.99998 193.602 1.99998C221.068 1.99998 241.335 1.59999 254.402 0.799998V8.79999C244.268 9.33332 237.068 10.5333 232.802 12.4C228.535 14.2667 226.402 18 226.402 23.6C226.402 28.1333 228.002 34.4 231.202 42.4L301.602 221.6L350.802 88.8C358.268 68.2667 362.002 52 362.002 40C362.002 29.3333 359.068 21.6 353.202 16.8C347.602 12 339.335 9.33332 328.402 8.79999V0.799998C346.535 1.59999 363.202 1.99998 378.402 1.99998Z" fill="white"/>
</svg>
